<svg xmlns="http://www.w3.org/2000/svg" xml:space="preserve" viewBox="0 0 98.896 65.28">
  <path fill="darkslategrey" d="M57.116 0 44.643 19.22 39.17 12.6 26.506 31.311l-4.264-4.455L0 59.566c29.656-13.809 76.972-9.672 76.972-9.672L56.48 27.365l3.373-7.573-5.027-3.754 2.99-10.564 12.792 17.691.764-1.273zm-16.8 18.71 17.119 23.674-12.156-8.591-3.754 4.9 1.018-5.855-5.282-3.755z"/>
  <path fill="cadetblue" d="M19.442 58.103c29.274-5.09 59.312-2.673 59.312-2.673l-.064-3.69s-40.093-1.4-59.248 6.363m46.924-28.2s-2.098-2.74-3.27-3.172c.083-.063 1.083-.995 3.637 1.345l.32.042c2.655-1.665 3.656-.127 3.656-.127s-1.417-.215-3.706 1.962zm5.065 4.441s.843-1.448 2.24-2.215c-.14-.08-1.807-.225-2.545.735l-.242.03c-1.533-1.18-3.083.113-3.083.113s.945-.79 3.234 1.388zm11.937 19.814.318 4.74-1.293 1.43 1.606 1.03 1.527 3.922 1.316-4.128 1.31-1.147-1.46-1.212-.238-4.699zm-.174-1.27-.925-9.008 3.326-.191.796 9.164zm-1.153-10.537 3.415-.23-.91-15.838-3.943-.063zm16.855-30.8S87.6 4.423 73.143 11.83c0 0-1.264 1.94 1.953 2.48 4.033-3.463 4.635-1.574 4.635-1.574l.683 12.035 4.136.127-.622-12.656s5.875-2.758 14.125.645z"/>
  <path fill="cadetblue" d="M79.919 13.438c-10.246 18.456.135 19.093 1.185 16.324l-.36-2.276c-1.081 3.31-7.126 2.64-.667-10.98z"/>
</svg>
